<svg width="30" height="30" viewBox="0 0 30 30" fill="none" xmlns="http://www.w3.org/2000/svg">
<path d="M6.46457 24.3895C6.46457 25.0361 6.72139 25.6561 7.17855 26.1133C7.63571 26.5704 8.25575 26.8273 8.90228 26.8273H21.0908C21.7373 26.8273 22.3574 26.5704 22.8145 26.1133C23.2717 25.6561 23.5285 25.0361 23.5285 24.3895V9.76328H25.9662V7.32557H21.0908V4.88786C21.0908 4.24134 20.834 3.6213 20.3768 3.16414C19.9197 2.70698 19.2996 2.45015 18.6531 2.45015H11.34C10.6935 2.45015 10.0734 2.70698 9.61626 3.16414C9.1591 3.6213 8.90228 4.24134 8.90228 4.88786V7.32557H4.02686V9.76328H6.46457V24.3895ZM11.34 4.88786H18.6531V7.32557H11.34V4.88786ZM10.1211 9.76328H21.0908V24.3895H8.90228V9.76328H10.1211Z" fill="#777777"/>
<path d="M11.3398 12.201H13.7776V21.9518H11.3398V12.201ZM16.2153 12.201H18.653V21.9518H16.2153V12.201Z" fill="#777777"/>
</svg>
