<svg width="50" height="50" viewBox="0 0 50 50" fill="none" xmlns="http://www.w3.org/2000/svg">
<path d="M45.7228 19.1229C45.5919 18.7373 45.3508 18.3983 45.0295 18.1481C44.7081 17.8978 44.3205 17.7471 43.9145 17.7146L32.0374 16.7709L26.8978 5.39378C26.7341 5.02735 26.4679 4.71612 26.1312 4.49765C25.7946 4.27918 25.4019 4.16282 25.0006 4.1626C24.5992 4.16238 24.2064 4.27831 23.8695 4.49641C23.5326 4.71451 23.2661 5.02544 23.102 5.3917L17.9624 16.7709L6.08531 17.7146C5.68626 17.7462 5.30476 17.8921 4.98646 18.1349C4.66817 18.3776 4.42654 18.7069 4.2905 19.0834C4.15446 19.4599 4.12976 19.8676 4.21936 20.2577C4.30896 20.6479 4.50906 21.004 4.79573 21.2834L13.5728 29.8396L10.4686 43.2813C10.3744 43.6882 10.4046 44.114 10.5553 44.5035C10.7061 44.8929 10.9704 45.2281 11.3141 45.4655C11.6577 45.7029 12.0647 45.8316 12.4824 45.8347C12.9 45.8379 13.3089 45.7155 13.6561 45.4834L24.9999 37.9209L36.3436 45.4834C36.6985 45.719 37.117 45.8403 37.5429 45.8309C37.9687 45.8216 38.3815 45.6821 38.7257 45.4311C39.0699 45.1802 39.329 44.8299 39.4682 44.4273C39.6073 44.0247 39.6198 43.5891 39.5041 43.1792L35.6936 29.8459L45.1436 21.3417C45.7624 20.7834 45.9895 19.9125 45.7228 19.1229Z" fill="#AAAAAA"/>
</svg>
