<svg width="24" height="25" viewBox="0 0 24 25" fill="none" xmlns="http://www.w3.org/2000/svg">
<path d="M21 4.0743H2V6.0743H4.3L7.58 15.0743C7.78631 15.6579 8.16807 16.1633 8.67294 16.5214C9.1778 16.8794 9.78106 17.0726 10.4 17.0743H19V15.0743H10.4C10.1945 15.0742 9.99399 15.0108 9.8258 14.8927C9.6576 14.7746 9.52987 14.6076 9.46 14.4143L9 13.0743H18.28C18.714 13.0737 19.1361 12.9319 19.4824 12.6703C19.8288 12.4087 20.0806 12.0416 20.2 11.6243L22 5.3443C22.0406 5.21299 22.0538 5.0747 22.0386 4.93808C22.0234 4.80146 21.9802 4.66943 21.9117 4.55026C21.8432 4.43108 21.7509 4.3273 21.6404 4.24541C21.53 4.16352 21.4039 4.10527 21.27 4.0743C21.1806 4.05975 21.0894 4.05975 21 4.0743ZM18.25 11.0743H8.25L6.43 6.0743H19.67L18.25 11.0743Z" fill="#777777"/>
<path d="M10.5 21.0743C11.3284 21.0743 12 20.4027 12 19.5743C12 18.7459 11.3284 18.0743 10.5 18.0743C9.67157 18.0743 9 18.7459 9 19.5743C9 20.4027 9.67157 21.0743 10.5 21.0743Z" fill="#777777"/>
<path d="M16.5 21.0743C17.3284 21.0743 18 20.4027 18 19.5743C18 18.7459 17.3284 18.0743 16.5 18.0743C15.6716 18.0743 15 18.7459 15 19.5743C15 20.4027 15.6716 21.0743 16.5 21.0743Z" fill="#777777"/>
</svg>
