<?xml version="1.0" encoding="utf-8"?>
<!-- Generator: Adobe Illustrator 26.0.1, SVG Export Plug-In . SVG Version: 6.00 Build 0)  -->
<svg version="1.1" id="Layer_1" xmlns="http://www.w3.org/2000/svg" xmlns:xlink="http://www.w3.org/1999/xlink" x="0px" y="0px"
	 viewBox="0 0 533.9 533.9" style="enable-background:new 0 0 533.9 533.9;" xml:space="preserve">
<g>
	<g>
		<path d="M104.3,469c-10.1,0-20.1-3.8-27.8-11.5c-15.4-15.4-15.4-40.3,0-55.6L401.8,76.4c15.4-15.4,40.3-15.4,55.6,0
			c15.4,15.4,15.4,40.3,0,55.6L132.1,457.5C124.4,465.2,114.3,469,104.3,469z"/>
	</g>
	<g>
		<path d="M429.7,469c10.1,0,20.1-3.8,27.8-11.5c15.4-15.4,15.4-40.3,0-55.6L132.1,76.4c-15.4-15.4-40.3-15.4-55.6,0
			c-15.4,15.4-15.4,40.3,0,55.6l325.4,325.4C409.5,465.2,419.6,469,429.7,469z"/>
	</g>
</g>
</svg>
