<svg width="30" height="31" viewBox="0 0 30 31" fill="none" xmlns="http://www.w3.org/2000/svg">
<path d="M14.9987 9.48438C13.4658 9.48438 11.9956 10.0933 10.9117 11.1773C9.82771 12.2613 9.21875 13.7314 9.21875 15.2644C9.21875 16.7973 9.82771 18.2675 10.9117 19.3515C11.9956 20.4354 13.4658 21.0444 14.9987 21.0444C16.5317 21.0444 18.0019 20.4354 19.0858 19.3515C20.1698 18.2675 20.7787 16.7973 20.7787 15.2644C20.7787 13.7314 20.1698 12.2613 19.0858 11.1773C18.0019 10.0933 16.5317 9.48438 14.9987 9.48438ZM14.9987 19.0181C14.0029 19.0181 13.0478 18.6225 12.3436 17.9183C11.6394 17.2141 11.2437 16.259 11.2437 15.2631C11.2437 14.2672 11.6394 13.3121 12.3436 12.6079C13.0478 11.9037 14.0029 11.5081 14.9987 11.5081C15.9946 11.5081 16.9497 11.9037 17.6539 12.6079C18.3581 13.3121 18.7537 14.2672 18.7537 15.2631C18.7537 16.259 18.3581 17.2141 17.6539 17.9183C16.9497 18.6225 15.9946 19.0181 14.9987 19.0181Z" fill="#CCCCCC"/>
<path d="M21.0075 10.6193C21.7517 10.6193 22.355 10.016 22.355 9.27182C22.355 8.52761 21.7517 7.92432 21.0075 7.92432C20.2633 7.92432 19.66 8.52761 19.66 9.27182C19.66 10.016 20.2633 10.6193 21.0075 10.6193Z" fill="#CCCCCC"/>
<path d="M25.6663 7.90203C25.3769 7.15476 24.9347 6.47613 24.3679 5.9096C23.8012 5.34307 23.1224 4.90112 22.375 4.61203C21.5004 4.28373 20.5765 4.10621 19.6425 4.08703C18.4388 4.03453 18.0575 4.01953 15.005 4.01953C11.9525 4.01953 11.5613 4.01953 10.3675 4.08703C9.43424 4.10523 8.51095 4.28278 7.6375 4.61203C6.88992 4.90078 6.21096 5.34262 5.64417 5.90919C5.07738 6.47576 4.63529 7.15456 4.34625 7.90203C4.01788 8.77655 3.84077 9.70058 3.8225 10.6345C3.76875 11.837 3.7525 12.2183 3.7525 15.272C3.7525 18.3245 3.7525 18.7133 3.8225 19.9095C3.84125 20.8445 4.0175 21.767 4.34625 22.6433C4.6361 23.3905 5.07862 24.069 5.64555 24.6355C6.21247 25.202 6.89133 25.644 7.63875 25.9333C8.51054 26.2748 9.43422 26.465 10.37 26.4958C11.5738 26.5483 11.955 26.5645 15.0075 26.5645C18.06 26.5645 18.4513 26.5645 19.645 26.4958C20.5789 26.4768 21.5028 26.2997 22.3775 25.972C23.1247 25.6823 23.8033 25.2399 24.37 24.6732C24.9366 24.1066 25.379 23.428 25.6688 22.6808C25.9975 21.8058 26.1738 20.8833 26.1925 19.9483C26.2463 18.7458 26.2625 18.3645 26.2625 15.3108C26.2625 12.257 26.2625 11.8695 26.1925 10.6733C26.178 9.72612 25.9999 8.78859 25.6663 7.90203ZM24.1438 19.817C24.1357 20.5374 24.0042 21.2511 23.755 21.927C23.5673 22.4131 23.2799 22.8545 22.9113 23.2229C22.5428 23.5912 22.1012 23.8783 21.615 24.0658C20.9465 24.3138 20.2405 24.4453 19.5275 24.4545C18.34 24.5095 18.005 24.5233 14.96 24.5233C11.9125 24.5233 11.6013 24.5233 10.3913 24.4545C9.67866 24.4458 8.97291 24.3143 8.305 24.0658C7.81711 23.8795 7.37375 23.5929 7.00361 23.2245C6.63348 22.8561 6.3448 22.414 6.15625 21.927C5.91056 21.2583 5.77914 20.5531 5.7675 19.8408C5.71375 18.6533 5.70125 18.3183 5.70125 15.2733C5.70125 12.227 5.70125 11.9158 5.7675 10.7045C5.77558 9.98456 5.90707 9.27131 6.15625 8.59578C6.5375 7.60953 7.31875 6.83328 8.305 6.45578C8.97324 6.20846 9.67878 6.07699 10.3913 6.06703C11.58 6.01328 11.9138 5.99828 14.96 5.99828C18.0063 5.99828 18.3188 5.99828 19.5275 6.06703C20.2405 6.07561 20.9467 6.20712 21.615 6.45578C22.1012 6.64362 22.5427 6.93103 22.9112 7.29957C23.2798 7.6681 23.5672 8.10962 23.755 8.59578C24.0007 9.26447 24.1321 9.96973 24.1438 10.682C24.1975 11.8708 24.2113 12.2045 24.2113 15.2508C24.2113 18.2958 24.2113 18.6233 24.1575 19.8183H24.1438V19.817Z" fill="#CCCCCC"/>
</svg>
