<svg width="30" height="31" viewBox="0 0 30 31" fill="none" xmlns="http://www.w3.org/2000/svg">
<path d="M6.22875 9.25955C7.73925 9.25955 8.96375 8.03505 8.96375 6.52455C8.96375 5.01405 7.73925 3.78955 6.22875 3.78955C4.71825 3.78955 3.49375 5.01405 3.49375 6.52455C3.49375 8.03505 4.71825 9.25955 6.22875 9.25955Z" fill="#CCCCCC"/>
<path d="M11.5463 11.332V26.5058H16.2575V19.002C16.2575 17.022 16.63 15.1045 19.085 15.1045C21.5063 15.1045 21.5363 17.3683 21.5363 19.127V26.507H26.25V18.1858C26.25 14.0983 25.37 10.957 20.5925 10.957C18.2988 10.957 16.7613 12.2158 16.1325 13.407H16.0688V11.332H11.5463ZM3.86875 11.332H8.5875V26.5058H3.86875V11.332Z" fill="#CCCCCC"/>
</svg>
