<svg width="30" height="31" viewBox="0 0 30 31" fill="none" xmlns="http://www.w3.org/2000/svg">
<path d="M14.9875 2.76318C8.09 2.76318 2.5 8.35443 2.5 15.2507C2.5 20.5407 5.79125 25.0632 10.4375 26.8832C10.3275 25.8957 10.23 24.3757 10.48 23.2982C10.7075 22.3232 11.945 17.0907 11.945 17.0907C11.945 17.0907 11.5712 16.3419 11.5712 15.2357C11.5712 13.5007 12.5775 12.2044 13.8312 12.2044C14.8975 12.2044 15.4113 13.0044 15.4113 13.9632C15.4113 15.0357 14.7288 16.6369 14.3775 18.1219C14.0837 19.3644 15.0013 20.3782 16.2262 20.3782C18.445 20.3782 20.1525 18.0382 20.1525 14.6594C20.1525 11.6694 18.0038 9.57943 14.9363 9.57943C11.3825 9.57943 9.29625 12.2444 9.29625 14.9982C9.29625 16.0707 9.71 17.2219 10.2262 17.8482C10.2701 17.8953 10.3011 17.953 10.3162 18.0156C10.3313 18.0783 10.33 18.1437 10.3125 18.2057C10.2175 18.5994 10.0062 19.4482 9.96625 19.6219C9.91125 19.8507 9.785 19.8994 9.5475 19.7894C7.98875 19.0632 7.01375 16.7832 7.01375 14.9507C7.01375 11.0119 9.875 7.39443 15.265 7.39443C19.5975 7.39443 22.9638 10.4807 22.9638 14.6069C22.9638 18.9119 20.25 22.3732 16.4838 22.3732C15.2175 22.3732 14.0288 21.7169 13.6213 20.9407L12.8425 23.9082C12.5613 24.9932 11.8 26.3532 11.2913 27.1832C12.4889 27.5529 13.7353 27.7404 14.9888 27.7394C21.885 27.7394 27.4763 22.1482 27.4763 15.2519C27.4763 8.35568 21.8838 2.76318 14.9875 2.76318Z" fill="#CCCCCC"/>
</svg>
