<svg width="50" height="62" viewBox="0 0 50 62" fill="none" xmlns="http://www.w3.org/2000/svg">
<path d="M45.5657 22.7521L45.5136 22.4021L45.4594 22.4146C45.0892 20.6834 44.2364 19.0924 42.9997 17.8257C41.763 16.559 40.1929 15.6684 38.4711 15.2568C36.7493 14.8453 34.9461 14.9297 33.2703 15.5002C31.5944 16.0708 30.1143 17.1042 29.0013 18.4808C27.8883 19.8575 27.1878 21.5211 26.9809 23.2793C26.774 25.0375 27.0692 26.8183 27.8322 28.4158C28.5952 30.0132 29.795 31.3619 31.2926 32.3059C32.7902 33.2499 34.5245 33.7506 36.2948 33.75C36.7594 33.75 37.2052 33.6792 37.649 33.6146C37.5052 34.0979 37.3573 34.5896 37.1198 35.0313C36.8823 35.6729 36.5115 36.2292 36.1427 36.7896C35.8344 37.3958 35.2907 37.8062 34.8907 38.325C34.4719 38.8292 33.9011 39.1646 33.449 39.5833C33.0052 40.0208 32.424 40.2396 31.9615 40.5479C31.4782 40.825 31.0573 41.1313 30.6073 41.2771L29.4844 41.7396L28.4969 42.15L29.5052 46.1896L30.749 45.8896C31.1469 45.7896 31.6323 45.6729 32.1844 45.5333C32.749 45.4292 33.3511 45.1438 34.0219 44.8833C34.6823 44.5854 35.4511 44.3875 36.1636 43.9104C36.8802 43.4563 37.7073 43.0771 38.4365 42.4688C39.1427 41.8417 39.9948 41.2979 40.624 40.5021C41.3115 39.7563 41.9907 38.9729 42.5177 38.0813C43.1282 37.2313 43.5427 36.2979 43.9802 35.375C44.3761 34.4521 44.6948 33.5083 44.9552 32.5917C45.449 30.7542 45.6698 29.0083 45.7552 27.5146C45.8261 26.0188 45.7844 24.775 45.6969 23.875C45.6676 23.4991 45.6239 23.1246 45.5657 22.7521ZM22.649 22.7521L22.5969 22.4021L22.5427 22.4146C22.1726 20.6834 21.3198 19.0924 20.083 17.8257C18.8463 16.559 17.2762 15.6684 15.5544 15.2568C13.8326 14.8453 12.0294 14.9297 10.3536 15.5002C8.67773 16.0708 7.19767 17.1042 6.08465 18.4808C4.97164 19.8575 4.27115 21.5211 4.06425 23.2793C3.85735 25.0375 4.15249 26.8183 4.91553 28.4158C5.67856 30.0132 6.87829 31.3619 8.37592 32.3059C9.87354 33.2499 11.6078 33.7506 13.3782 33.75C13.8427 33.75 14.2886 33.6792 14.7323 33.6146C14.5886 34.0979 14.4407 34.5896 14.2032 35.0313C13.9657 35.6729 13.5948 36.2292 13.2261 36.7896C12.9177 37.3958 12.374 37.8062 11.974 38.325C11.5552 38.8292 10.9844 39.1646 10.5323 39.5833C10.0886 40.0208 9.50733 40.2396 9.04483 40.5479C8.56149 40.825 8.14066 41.1313 7.69066 41.2771L6.56774 41.7396C5.94066 41.9958 5.58233 42.1458 5.58233 42.1458L6.59066 46.1854L7.83441 45.8854C8.23233 45.7854 8.71774 45.6688 9.26983 45.5292C9.83441 45.425 10.4365 45.1396 11.1073 44.8792C11.7677 44.5813 12.5365 44.3833 13.249 43.9063C13.9657 43.4521 14.7927 43.0729 15.5219 42.4646C16.2282 41.8375 17.0802 41.2938 17.7094 40.4979C18.3969 39.7521 19.0761 38.9688 19.6032 38.0771C20.2136 37.2271 20.6282 36.2938 21.0657 35.3708C21.4615 34.4479 21.7802 33.5042 22.0407 32.5875C22.5344 30.75 22.7552 29.0042 22.8407 27.5104C22.9115 26.0146 22.8698 24.7708 22.7823 23.8708C22.7512 23.4964 22.7067 23.1233 22.649 22.7521Z" fill="#FF061E"/>
</svg>
