<svg width="40" height="41" viewBox="0 0 40 41" fill="none" xmlns="http://www.w3.org/2000/svg">
<path d="M36.5785 15.5583C36.4738 15.2498 36.281 14.9787 36.0239 14.7784C35.7668 14.5782 35.4567 14.4577 35.1319 14.4317L25.6302 13.6767L21.5185 4.575C21.3876 4.28186 21.1746 4.03287 20.9053 3.8581C20.636 3.68333 20.3218 3.59023 20.0007 3.59006C19.6797 3.58988 19.3654 3.68263 19.0959 3.85711C18.8264 4.03158 18.6131 4.28033 18.4819 4.57334L14.3702 13.6767L4.86854 14.4317C4.5493 14.457 4.2441 14.5737 3.98946 14.7679C3.73483 14.9621 3.54153 15.2255 3.4327 15.5267C3.32386 15.8279 3.3041 16.1541 3.37578 16.4662C3.44746 16.7783 3.60754 17.0631 3.83687 17.2867L10.8585 24.1317L8.37521 34.885C8.2998 35.2105 8.32397 35.5512 8.44457 35.8627C8.56518 36.1743 8.77665 36.4425 9.05154 36.6324C9.32644 36.8223 9.65207 36.9252 9.98618 36.9278C10.3203 36.9303 10.6474 36.8324 10.9252 36.6467L20.0002 30.5967L29.0752 36.6467C29.3591 36.8352 29.6939 36.9322 30.0346 36.9247C30.3753 36.9173 30.7055 36.8056 30.9809 36.6049C31.2562 36.4041 31.4635 36.1239 31.5748 35.8018C31.6861 35.4797 31.6962 35.1313 31.6035 34.8033L28.5552 24.1367L36.1152 17.3333C36.6102 16.8867 36.7919 16.19 36.5785 15.5583Z" fill="#AAAAAA"/>
</svg>
