<svg width="30" height="31" viewBox="0 0 30 31" fill="none" xmlns="http://www.w3.org/2000/svg">
<path d="M24.5412 10.2594C24.5575 10.4781 24.5575 10.6956 24.5575 10.9131C24.5575 17.5694 19.4912 25.2394 10.2325 25.2394C7.38 25.2394 4.73 24.4131 2.5 22.9781C2.905 23.0244 3.295 23.0406 3.71625 23.0406C5.98249 23.0461 8.18456 22.2883 9.9675 20.8894C8.91678 20.8703 7.89822 20.5237 7.05405 19.8978C6.20988 19.2719 5.58223 18.398 5.25875 17.3981C5.57 17.4444 5.8825 17.4756 6.21 17.4756C6.66125 17.4756 7.115 17.4131 7.53625 17.3044C6.39595 17.0741 5.37059 16.4561 4.63452 15.5552C3.89845 14.6544 3.49712 13.5264 3.49875 12.3631V12.3006C4.17 12.6744 4.94875 12.9081 5.77375 12.9394C5.08261 12.4801 4.5159 11.8569 4.12417 11.1254C3.73245 10.3938 3.52789 9.57669 3.52875 8.74687C3.52875 7.81187 3.7775 6.95437 4.21375 6.20687C5.47892 7.76314 7.05688 9.03632 8.84542 9.94394C10.634 10.8516 12.5932 11.3734 14.5963 11.4756C14.5188 11.1006 14.4712 10.7119 14.4712 10.3219C14.4709 9.66057 14.6009 9.00569 14.8538 8.39467C15.1068 7.78364 15.4776 7.22846 15.9452 6.76085C16.4128 6.29324 16.968 5.92238 17.5791 5.66946C18.1901 5.41655 18.845 5.28654 19.5062 5.28687C20.9562 5.28687 22.265 5.89437 23.185 6.87687C24.3122 6.65889 25.3932 6.24739 26.38 5.66062C26.0043 6.82414 25.2172 7.81075 24.1663 8.43562C25.166 8.32159 26.143 8.05868 27.065 7.65562C26.3764 8.65949 25.5232 9.5398 24.5412 10.2594Z" fill="#CCCCCC"/>
</svg>
