<svg width="30" height="31" viewBox="0 0 30 31" fill="none" xmlns="http://www.w3.org/2000/svg">
<path d="M27.4338 11.6633C27.3552 11.4319 27.2106 11.2286 27.0178 11.0784C26.825 10.9283 26.5924 10.8378 26.3488 10.8183L19.2225 10.2521L16.1388 3.42584C16.0406 3.20598 15.8808 3.01925 15.6788 2.88817C15.4768 2.75709 15.2412 2.68727 15.0004 2.68713C14.7596 2.687 14.524 2.75656 14.3218 2.88742C14.1197 3.01828 13.9597 3.20484 13.8613 3.42459L10.7775 10.2521L3.65128 10.8183C3.41185 10.8373 3.18296 10.9249 2.99198 11.0705C2.801 11.2162 2.65602 11.4137 2.5744 11.6396C2.49277 11.8655 2.47796 12.1101 2.53171 12.3442C2.58547 12.5783 2.70553 12.792 2.87753 12.9596L8.14378 18.0933L6.28128 26.1583C6.22473 26.4025 6.24285 26.658 6.33331 26.8916C6.42376 27.1253 6.58236 27.3265 6.78854 27.4689C6.99471 27.6113 7.23893 27.6885 7.48951 27.6904C7.74009 27.6923 7.98546 27.6189 8.19378 27.4796L15 22.9421L21.8063 27.4796C22.0192 27.621 22.2703 27.6937 22.5258 27.6881C22.7813 27.6825 23.029 27.5988 23.2355 27.4482C23.442 27.2977 23.5975 27.0875 23.681 26.8459C23.7645 26.6044 23.772 26.3431 23.7025 26.0971L21.4163 18.0971L27.0863 12.9946C27.4575 12.6596 27.5938 12.1371 27.4338 11.6633Z" fill="#C5BE00"/>
</svg>
