<svg width="51" height="50" viewBox="0 0 51 50" fill="none" xmlns="http://www.w3.org/2000/svg">
<path d="M41.9645 17.8875C41.8657 17.6613 41.7275 17.4546 41.5562 17.277L29.0562 4.77704C28.8786 4.60576 28.6719 4.46748 28.4458 4.36871C28.3833 4.33954 28.3166 4.32288 28.2499 4.29996C28.0756 4.24064 27.8941 4.20491 27.7103 4.19371C27.6666 4.18954 27.627 4.16663 27.5833 4.16663H12.9999C10.702 4.16663 8.83325 6.03538 8.83325 8.33329V41.6666C8.83325 43.9645 10.702 45.8333 12.9999 45.8333H37.9999C40.2978 45.8333 42.1666 43.9645 42.1666 41.6666V18.75C42.1666 18.7062 42.1437 18.6666 42.1395 18.6208C42.1293 18.4369 42.0936 18.2553 42.0333 18.0812C42.0124 18.0145 41.9937 17.95 41.9645 17.8875ZM35.0541 16.6666H29.6666V11.2791L35.0541 16.6666ZM12.9999 41.6666V8.33329H25.4999V18.75C25.4999 19.3025 25.7194 19.8324 26.1101 20.2231C26.5008 20.6138 27.0307 20.8333 27.5833 20.8333H37.9999L38.0041 41.6666H12.9999Z" fill="#7A7A7A"/>
<path d="M17.1667 25H33.8334V29.1666H17.1667V25ZM17.1667 33.3333H33.8334V37.5H17.1667V33.3333ZM17.1667 16.6666H21.3334V20.8333H17.1667V16.6666Z" fill="#7A7A7A"/>
</svg>
