<svg width="50" height="50" viewBox="0 0 50 50" fill="none" xmlns="http://www.w3.org/2000/svg">
<path d="M14.5833 22.9166H18.7499V27.0833H14.5833V22.9166ZM14.5833 31.25H18.7499V35.4166H14.5833V31.25ZM22.9166 22.9166H27.0833V27.0833H22.9166V22.9166ZM22.9166 31.25H27.0833V35.4166H22.9166V31.25ZM31.2499 22.9166H35.4166V27.0833H31.2499V22.9166ZM31.2499 31.25H35.4166V35.4166H31.2499V31.25Z" fill="#7A7A7A"/>
<path d="M10.4167 45.8333H39.5833C41.8812 45.8333 43.75 43.9645 43.75 41.6666V12.5C43.75 10.202 41.8812 8.33329 39.5833 8.33329H35.4167V4.16663H31.25V8.33329H18.75V4.16663H14.5833V8.33329H10.4167C8.11875 8.33329 6.25 10.202 6.25 12.5V41.6666C6.25 43.9645 8.11875 45.8333 10.4167 45.8333ZM39.5833 16.6666L39.5854 41.6666H10.4167V16.6666H39.5833Z" fill="#7A7A7A"/>
</svg>
