<svg width="50" height="50" viewBox="0 0 50 50" fill="none" xmlns="http://www.w3.org/2000/svg">
<path d="M41.6667 6.25H8.33341C7.22835 6.25 6.16854 6.68899 5.38714 7.47039C4.60573 8.25179 4.16675 9.3116 4.16675 10.4167V18.75C4.16675 19.8551 4.60573 20.9149 5.38714 21.6963C6.16854 22.4777 7.22835 22.9167 8.33341 22.9167H41.6667C42.7718 22.9167 43.8316 22.4777 44.613 21.6963C45.3944 20.9149 45.8334 19.8551 45.8334 18.75V10.4167C45.8334 9.3116 45.3944 8.25179 44.613 7.47039C43.8316 6.68899 42.7718 6.25 41.6667 6.25ZM8.33341 18.75V10.4167H41.6667V18.75H8.33341ZM41.6667 27.0833H8.33341C7.22835 27.0833 6.16854 27.5223 5.38714 28.3037C4.60573 29.0851 4.16675 30.1449 4.16675 31.25V39.5833C4.16675 40.6884 4.60573 41.7482 5.38714 42.5296C6.16854 43.311 7.22835 43.75 8.33341 43.75H41.6667C42.7718 43.75 43.8316 43.311 44.613 42.5296C45.3944 41.7482 45.8334 40.6884 45.8334 39.5833V31.25C45.8334 30.1449 45.3944 29.0851 44.613 28.3037C43.8316 27.5223 42.7718 27.0833 41.6667 27.0833ZM8.33341 39.5833V31.25H41.6667V39.5833H8.33341Z" fill="#3A3A3A"/>
<path d="M35.4167 12.5H39.5834V16.6667H35.4167V12.5ZM29.1667 12.5H33.3334V16.6667H29.1667V12.5ZM35.4167 33.3333H39.5834V37.5H35.4167V33.3333ZM29.1667 33.3333H33.3334V37.5H29.1667V33.3333Z" fill="#3A3A3A"/>
</svg>
