<svg width="51" height="50" viewBox="0 0 51 50" fill="none" xmlns="http://www.w3.org/2000/svg">
<path d="M35.0916 23.0166C36.3605 20.8543 36.9084 18.3444 36.6562 15.85C36.2833 12.1333 34.2083 8.84789 30.8166 6.59998L28.5145 10.0708C30.8458 11.6166 32.2645 13.8187 32.5104 16.2666C32.6237 17.4043 32.4821 18.553 32.0958 19.6291C31.7094 20.7052 31.0881 21.6817 30.277 22.4875L27.7937 24.9708L31.1645 25.9604C39.9812 28.5437 40.0833 37.4104 40.0833 37.5H44.25C44.25 33.7729 42.2583 26.4896 35.0916 23.0166Z" fill="#7A7A7A"/>
<path d="M20.2917 25C24.8876 25 28.6251 21.2625 28.6251 16.6667C28.6251 12.0709 24.8876 8.33337 20.2917 8.33337C15.6959 8.33337 11.9584 12.0709 11.9584 16.6667C11.9584 21.2625 15.6959 25 20.2917 25ZM20.2917 12.5C22.5897 12.5 24.4584 14.3688 24.4584 16.6667C24.4584 18.9646 22.5897 20.8334 20.2917 20.8334C17.9938 20.8334 16.1251 18.9646 16.1251 16.6667C16.1251 14.3688 17.9938 12.5 20.2917 12.5ZM23.4167 27.0834H17.1667C10.273 27.0834 4.66675 32.6896 4.66675 39.5834V41.6667H8.83341V39.5834C8.83341 34.9875 12.5709 31.25 17.1667 31.25H23.4167C28.0126 31.25 31.7501 34.9875 31.7501 39.5834V41.6667H35.9167V39.5834C35.9167 32.6896 30.3105 27.0834 23.4167 27.0834Z" fill="#7A7A7A"/>
</svg>
